<svg xmlns="http://www.w3.org/2000/svg" fill="none" viewBox="0 0 50 50" id="Search-Category--Streamline-Flex.svg" height="50" width="50"><desc>Search Category Streamline Icon: https://streamlinehq.com</desc><g id="search-category"><path id="Subtract" fill="#8fbffa" fill-rule="evenodd" d="M6.214285714285714 0.525C7.853571428571429 0.34285714285714286 9.592857142857143 0.1785714285714286 11.389285714285714 0.1785714285714286c1.792857142857143 0 3.535714285714286 0.16428571428571428 5.164285714285715 0.3464285714285715a6.521428571428572 6.521428571428572 0 0 1 5.739285714285715 5.757142857142858c0.17500000000000002 1.6250000000000002 0.32857142857142857 3.35 0.32857142857142857 5.128571428571429 0 0.8428571428571429 -0.03571428571428572 1.6714285714285717 -0.0892857142857143 2.482142857142857a17.12857142857143 17.12857142857143 0 0 0 -5.142857142857143 3.528571428571429 17.178571428571427 17.178571428571427 0 0 0 -3.5250000000000004 5.132142857142858 35.41428571428572 35.41428571428572 0 0 1 -2.475 0.09285714285714286c-1.7964285714285715 0 -3.535714285714286 -0.16428571428571428 -5.167857142857144 -0.3464285714285715A6.521428571428572 6.521428571428572 0 0 1 0.47857142857142865 16.54285714285714a48.07142857142858 48.07142857142858 0 0 1 -0.32857142857142857 -5.132142857142858c0 -1.7785714285714287 0.15357142857142858 -3.5035714285714286 0.32857142857142857 -5.128571428571429A6.521428571428572 6.521428571428572 0 0 1 6.214285714285714 0.525Zm6.196428571428572 26.82857142857143a31.571428571428573 31.571428571428573 0 0 0 -1.0285714285714285 -0.01785714285714286c-1.792857142857143 0 -3.535714285714286 0.16428571428571428 -5.164285714285715 0.3464285714285715A6.521428571428572 6.521428571428572 0 0 0 0.47857142857142865 33.43928571428572 48.07142857142858 48.07142857142858 0 0 0 0.15000000000000002 38.57142857142858c0 1.7785714285714287 0.15357142857142858 3.507142857142857 0.32857142857142857 5.132142857142858 0.32142857142857145 3.0142857142857142 2.732142857142857 5.421428571428572 5.739285714285715 5.757142857142858a46.42857142857143 46.42857142857143 0 0 0 5.164285714285715 0.34285714285714286 46.42857142857143 46.42857142857143 0 0 0 5.167857142857144 -0.34285714285714286c1.25 -0.14285714285714288 2.3928571428571432 -0.6357142857142857 3.3285714285714287 -1.3821428571428573a16.864285714285717 16.864285714285717 0 0 1 -2.492857142857143 -2.057142857142857c-3.828571428571429 -3.825 -5.342857142857143 -8.989285714285714 -5.342857142857143 -14.299999999999999a25.357142857142858 25.357142857142858 0 0 1 0.3678571428571429 -4.367857142857144Zm35.667857142857144 -7.389285714285714a6.428571428571429 6.428571428571429 0 0 0 1.442857142857143 -3.4214285714285713c0.17500000000000002 -1.6250000000000002 0.32857142857142857 -3.35 0.32857142857142857 -5.132142857142858 0 -1.7785714285714287 -0.15357142857142858 -3.5035714285714286 -0.32857142857142857 -5.128571428571429A6.517857142857143 6.517857142857143 0 0 0 43.785714285714285 0.525 46.535714285714285 46.535714285714285 0 0 0 38.614285714285714 0.1785714285714286c-1.792857142857143 0 -3.535714285714286 0.16428571428571428 -5.164285714285715 0.3464285714285715a6.521428571428572 6.521428571428572 0 0 0 -5.739285714285715 5.757142857142858 48.07142857142858 48.07142857142858 0 0 0 -0.32857142857142857 5.128571428571429c0 0.34285714285714286 0.0071428571428571435 0.6857142857142857 0.014285714285714287 1.0214285714285714a25.28571428571429 25.28571428571429 0 0 1 4.289285714285715 -0.3535714285714286c5.310714285714286 0 10.475 1.5142857142857142 14.299999999999999 5.342857142857143 0.7964285714285715 0.7928571428571429 1.4892857142857143 1.642857142857143 2.092857142857143 2.5428571428571427Z" clip-rule="evenodd" stroke-width="1"></path><path id="Union" fill="#2859c5" fill-rule="evenodd" d="M21.864285714285714 31.72142857142857c0 -3.507142857142857 0.9785714285714286 -5.867857142857143 2.4642857142857144 -7.357142857142858 1.4892857142857143 -1.4857142857142858 3.8500000000000005 -2.4642857142857144 7.357142857142858 -2.4642857142857144s5.867857142857143 0.9785714285714286 7.357142857142858 2.4642857142857144c1.4857142857142858 1.4892857142857143 2.4642857142857144 3.8500000000000005 2.4642857142857144 7.357142857142858s-0.9785714285714286 5.867857142857143 -2.4642857142857144 7.357142857142858c-1.4892857142857143 1.4857142857142858 -3.8500000000000005 2.4642857142857144 -7.357142857142858 2.4642857142857144s-5.867857142857143 -0.9785714285714286 -7.357142857142858 -2.4642857142857144c-1.4857142857142858 -1.4892857142857143 -2.4642857142857144 -3.8500000000000005 -2.4642857142857144 -7.357142857142858Zm9.821428571428571 -15.178571428571429c-4.492857142857143 0 -8.382142857142858 1.2714285714285714 -11.142857142857144 4.035714285714286 -2.7642857142857147 2.760714285714286 -4.035714285714286 6.65 -4.035714285714286 11.142857142857144s1.2714285714285714 8.382142857142858 4.035714285714286 11.142857142857144c2.760714285714286 2.7642857142857147 6.65 4.035714285714286 11.142857142857144 4.035714285714286 3.4464285714285716 0 6.5357142857142865 -0.75 9.035714285714285 -2.342857142857143l4.478571428571429 4.478571428571429a2.678571428571429 2.678571428571429 0 0 0 3.785714285714286 -3.785714285714286l-4.475 -4.478571428571429c1.6035714285714286 -2.5 2.357142857142857 -5.5964285714285715 2.357142857142857 -9.049999999999999 0 -4.492857142857143 -1.275 -8.382142857142858 -4.035714285714286 -11.142857142857144 -2.7642857142857147 -2.7642857142857147 -6.6535714285714285 -4.035714285714286 -11.142857142857144 -4.035714285714286Z" clip-rule="evenodd" stroke-width="1"></path></g></svg>