<svg xmlns="http://www.w3.org/2000/svg" fill="none" viewBox="0 0 50 50" id="Sound-Recognition-Search--Streamline-Flex.svg" height="50" width="50"><desc>Sound Recognition Search Streamline Icon: https://streamlinehq.com</desc><g id="sound-recognition-search"><path id="Vector" fill="#8fbffa" d="M33.35 44.635714285714286c7.485714285714287 0 11.696428571428571 -4.210714285714286 11.696428571428571 -11.696428571428571s-4.210714285714286 -11.696428571428571 -11.696428571428571 -11.696428571428571 -11.696428571428571 4.210714285714286 -11.696428571428571 11.696428571428571 4.210714285714286 11.696428571428571 11.696428571428571 11.696428571428571Z" stroke-width="1"></path><path id="Union" fill="#8fbffa" fill-rule="evenodd" d="M35.63928571428571 3.271428571428572a2.678571428571429 2.678571428571429 0 0 0 -5.357142857142858 0v8.117857142857144a2.678571428571429 2.678571428571429 0 1 0 5.357142857142858 0V3.271428571428572ZM15.482142857142858 3.292857142857143a2.678571428571429 2.678571428571429 0 0 0 -5.357142857142858 0v31.97142857142857a2.678571428571429 2.678571428571429 0 0 0 5.357142857142858 0V3.292857142857143ZM5.4071428571428575 9.514285714285716a2.678571428571429 2.678571428571429 0 1 0 -5.357142857142858 0v19.91071428571429a2.678571428571429 2.678571428571429 0 0 0 5.357142857142858 0V9.514285714285716Zm17.475 -2.678571428571429a2.678571428571429 2.678571428571429 0 0 1 2.678571428571429 2.678571428571429v4.217857142857143a2.678571428571429 2.678571428571429 0 0 1 -5.357142857142858 0V9.514285714285716a2.678571428571429 2.678571428571429 0 0 1 2.678571428571429 -2.678571428571429Z" clip-rule="evenodd" stroke-width="1"></path><path id="Union_2" fill="#2859c5" fill-rule="evenodd" d="M24.33214285714286 32.93928571428572c0 -3.2500000000000004 0.9035714285714286 -5.410714285714286 2.2535714285714286 -6.764285714285714 1.3535714285714286 -1.35 3.5142857142857142 -2.2535714285714286 6.764285714285714 -2.2535714285714286 3.2500000000000004 0 5.410714285714286 0.9035714285714286 6.760714285714286 2.2535714285714286 1.3535714285714286 1.3535714285714286 2.257142857142857 3.5142857142857142 2.257142857142857 6.764285714285714 0 3.2500000000000004 -0.9035714285714286 5.410714285714286 -2.257142857142857 6.760714285714286 -1.35 1.3535714285714286 -3.5107142857142857 2.257142857142857 -6.760714285714286 2.257142857142857s-5.410714285714286 -0.9035714285714286 -6.764285714285714 -2.257142857142857c-1.35 -1.35 -2.2535714285714286 -3.5107142857142857 -2.2535714285714286 -6.760714285714286Zm9.017857142857142 -14.375000000000002c-4.235714285714286 0 -7.925 1.1964285714285716 -10.55 3.821428571428572 -2.6285714285714286 2.6285714285714286 -3.828571428571429 6.317857142857143 -3.828571428571429 10.553571428571429 0 4.235714285714286 1.2000000000000002 7.925 3.828571428571429 10.55 2.625 2.625 6.314285714285715 3.825 10.55 3.825 3.2 0 6.085714285714286 -0.6821428571428572 8.439285714285715 -2.15l3.4892857142857143 3.492857142857143a2.678571428571429 2.678571428571429 0 1 0 3.785714285714286 -3.785714285714286l-3.4892857142857143 -3.492857142857143c1.4642857142857142 -2.357142857142857 2.15 -5.239285714285715 2.15 -8.439285714285715 0 -4.235714285714286 -1.2000000000000002 -7.925 -3.825 -10.55 -2.625 -2.6285714285714286 -6.314285714285715 -3.825 -10.55 -3.825Z" clip-rule="evenodd" stroke-width="1"></path></g></svg>