<svg xmlns="http://www.w3.org/2000/svg" fill="none" viewBox="0 0 50 50" id="Information-Circle--Streamline-Flex.svg" height="50" width="50"><desc>Information Circle Streamline Icon: https://streamlinehq.com</desc><g id="information-circle--information-frame-info-more-help-point-circle"><path id="Union" fill="#8fbffa" fill-rule="evenodd" d="M41.52857142857143 6.060714285714286C37.15 2.403571428571429 31.00714285714286 0.6607142857142857 25 0.6607142857142857S12.85 2.403571428571429 8.471428571428572 6.060714285714286C3.535714285714286 10.182142857142857 1.042857142857143 16.814285714285717 0.7000000000000001 23.40357142857143c-0.3464285714285715 6.589285714285714 1.435714285714286 13.485714285714286 5.492857142857143 18.250000000000004C10.635714285714286 46.871428571428574 17.928571428571427 49.339285714285715 25 49.339285714285715s14.364285714285716 -2.4642857142857144 18.807142857142857 -7.685714285714287c4.057142857142857 -4.764285714285715 5.839285714285714 -11.660714285714286 5.492857142857143 -18.250000000000004 -0.3464285714285715 -6.589285714285714 -2.835714285714286 -13.221428571428572 -7.771428571428572 -17.34285714285714Z" clip-rule="evenodd" stroke-width="1"></path><path id="Union_2" fill="#2859c5" fill-rule="evenodd" d="M28.15 13.271428571428572a2.232142857142857 2.232142857142857 0 1 0 -4.464285714285714 0v1.1500000000000001a2.232142857142857 2.232142857142857 0 1 0 4.464285714285714 0v-1.1500000000000001ZM18.289285714285718 21.42857142857143c0 -1.2321428571428572 1.0000000000000002 -2.232142857142857 2.232142857142857 -2.232142857142857h1.7714285714285716c3.2071428571428573 0 5.803571428571429 2.6 5.803571428571429 5.803571428571429v7.521428571428571h3.1142857142857143a2.232142857142857 2.232142857142857 0 1 1 0 4.464285714285714H20.571428571428573a2.232142857142857 2.232142857142857 0 1 1 0 -4.464285714285714h3.0571428571428574V25a1.3392857142857144 1.3392857142857144 0 0 0 -1.3392857142857144 -1.3392857142857144h-1.7714285714285716A2.232142857142857 2.232142857142857 0 0 1 18.289285714285718 21.42857142857143Z" clip-rule="evenodd" stroke-width="1"></path></g></svg>