<svg xmlns="http://www.w3.org/2000/svg" fill="none" viewBox="0 0 50 50" id="Help-Chat-1--Streamline-Flex.svg" height="50" width="50"><desc>Help Chat 1 Streamline Icon: https://streamlinehq.com</desc><g id="help-chat-1--bubble-help-mark-message-query-question-speech-square"><path id="Union" fill="#8fbffa" fill-rule="evenodd" d="M25 0.8928571428571429c-5.439285714285714 0 -10.760714285714286 0.28571428571428575 -15.85714285714286 0.8214285714285715A8.307142857142857 8.307142857142857 0 0 0 1.7321428571428572 8.757142857142858a83.53928571428571 83.53928571428571 0 0 0 -0.03571428571428572 23.357142857142858c0.567857142857143 4.075 3.985714285714286 6.9714285714285715 7.917857142857144 7.339285714285715l0.7785714285714286 0.07142857142857144 0.8035714285714286 0.07142857142857144v7.7285714285714295a1.7857142857142858 1.7857142857142858 0 0 0 2.5142857142857142 1.6285714285714288c5.017857142857143 -2.25 8.053571428571429 -4.435714285714286 11.714285714285714 -8.535714285714286a154.83214285714288 154.83214285714288 0 0 0 15.200000000000001 -0.8357142857142859 8.521428571428572 8.521428571428572 0 0 0 7.610714285714286 -7.260714285714286 83.25 83.25 0 0 0 0.8714285714285714 -11.664285714285715c0 -4.035714285714286 -0.3107142857142857 -7.992857142857143 -0.8535714285714285 -11.789285714285715a8.407142857142858 8.407142857142858 0 0 0 -7.503571428571429 -7.142857142857143A152.59285714285716 152.59285714285716 0 0 0 25 0.8928571428571429Z" clip-rule="evenodd" stroke-width="1"></path><path id="Union_2" fill="#2859c5" fill-rule="evenodd" d="M21.882142857142856 15.260714285714286a3.1714285714285717 3.1714285714285717 0 0 1 3.728571428571429 -3.0571428571428574c1.1892857142857145 0.23571428571428574 2.2142857142857144 1.2607142857142857 2.45 2.45a1.8642857142857145 1.8642857142857145 0 0 1 -0.12142857142857144 1.2785714285714287c-0.1785714285714286 0.3464285714285715 -0.5321428571428571 0.7571428571428571 -1.2035714285714287 1.2071428571428573 -0.9107142857142858 0.6071428571428572 -1.8642857142857145 1.2607142857142857 -2.567857142857143 1.9892857142857145 -0.7857142857142858 0.8214285714285715 -1.3964285714285716 1.8785714285714288 -1.3964285714285716 3.2678571428571432a2.232142857142857 2.232142857142857 0 0 0 4.464285714285714 0.010714285714285714 1.4214285714285715 1.4214285714285715 0 0 1 0.15357142857142858 -0.18571428571428572c0.30714285714285716 -0.32142857142857145 0.8392857142857143 -0.7107142857142857 1.8250000000000002 -1.3678571428571429 1.0892857142857144 -0.7285714285714285 2.0785714285714287 -1.6678571428571431 2.7035714285714287 -2.896428571428572 0.6428571428571429 -1.2714285714285714 0.8214285714285715 -2.685714285714286 0.5214285714285715 -4.175000000000001a7.682142857142857 7.682142857142857 0 0 0 -5.957142857142857 -5.957142857142857c-4.642857142857143 -0.9214285714285715 -9.064285714285715 2.7071428571428573 -9.064285714285715 7.435714285714286a2.232142857142857 2.232142857142857 0 1 0 4.464285714285714 0ZM27.232142857142858 30.571428571428577a2.232142857142857 2.232142857142857 0 1 0 -4.464285714285714 0v0.9821428571428573a2.232142857142857 2.232142857142857 0 1 0 4.464285714285714 0V30.571428571428577Z" clip-rule="evenodd" stroke-width="1"></path></g></svg>