<svg xmlns="http://www.w3.org/2000/svg" fill="none" viewBox="0 0 50 50" id="Definition-Search-Book--Streamline-Flex.svg" height="50" width="50"><desc>Definition Search Book Streamline Icon: https://streamlinehq.com</desc><g id="definition-search-book"><path id="Subtract" fill="#8fbffa" fill-rule="evenodd" d="M0 36.48928571428572V4.357142857142858C0 2.8214285714285716 0.9785714285714286 1.435714285714286 2.475 1.075 9.278571428571428 -0.5535714285714286 17.27857142857143 -0.07857142857142857 22.92857142857143 2.6571428571428575c1.2964285714285715 0.6285714285714286 2.8392857142857144 0.6285714285714286 4.135714285714285 0 5.6535714285714285 -2.7357142857142858 13.653571428571428 -3.210714285714286 20.45714285714286 -1.5821428571428573 1.4964285714285714 0.3571428571428572 2.475 1.7428571428571429 2.475 3.278571428571429v22.675c-0.5714285714285715 -0.9285714285714286 -1.25 -1.810714285714286 -2.0678571428571426 -2.625 -3.217857142857143 -3.2214285714285715 -7.489285714285715 -4.414285714285715 -11.657142857142857 -4.414285714285715 -4.167857142857144 0 -8.439285714285715 1.192857142857143 -11.660714285714286 4.414285714285715 -3.2214285714285715 3.2214285714285715 -4.414285714285715 7.492857142857143 -4.414285714285715 11.660714285714286 0 0.9142857142857144 0.05714285714285715 1.8357142857142859 0.18214285714285713 2.75 -5.389285714285714 -1.8071428571428572 -12.142857142857142 -1.9500000000000002 -18 -0.5285714285714286 -1.1821428571428572 0.28571428571428575 -2.378571428571429 -0.5714285714285715 -2.378571428571429 -1.7964285714285715Z" clip-rule="evenodd" stroke-width="1"></path><path id="Subtract_2" fill="#2859c5" fill-rule="evenodd" d="m22.925 2.778571428571429 0 -0.12142857142857144 0.0071428571428571435 0c1.2964285714285715 0.6285714285714286 2.8392857142857144 0.6285714285714286 4.135714285714285 0l0.30714285714285716 -0.14285714285714288a3.1892857142857145 3.1892857142857145 0 0 1 0.014285714285714287 0.2642857142857143V22.250000000000004a14.125000000000002 14.125000000000002 0 0 0 -4.464285714285714 4.2V2.778571428571429Z" clip-rule="evenodd" stroke-width="1"></path><path id="Vector" fill="#8fbffa" d="M36.275 44.99285714285715c5.714285714285715 0 8.928571428571429 -3.2142857142857144 8.928571428571429 -8.928571428571429s-3.2142857142857144 -8.928571428571429 -8.928571428571429 -8.928571428571429 -8.928571428571429 3.2142857142857144 -8.928571428571429 8.928571428571429 3.2142857142857144 8.928571428571429 8.928571428571429 8.928571428571429Z" stroke-width="1"></path><path id="Union" fill="#2859c5" fill-rule="evenodd" d="M30.021428571428576 36.06428571428572c0 -2.3642857142857143 0.6571428571428571 -3.8357142857142863 1.5357142857142858 -4.714285714285714 0.8821428571428572 -0.8821428571428572 2.3535714285714286 -1.5357142857142858 4.714285714285714 -1.5357142857142858 2.367857142857143 0 3.8357142857142863 0.6535714285714286 4.714285714285714 1.5357142857142858 0.8821428571428572 0.8785714285714286 1.5392857142857144 2.35 1.5392857142857144 4.714285714285714s-0.6571428571428571 3.8321428571428573 -1.5357142857142858 4.714285714285714c-0.8821428571428572 0.8821428571428572 -2.35 1.5357142857142858 -4.714285714285714 1.5357142857142858s-3.8357142857142863 -0.6535714285714286 -4.714285714285714 -1.5357142857142858c-0.8821428571428572 -0.8821428571428572 -1.5357142857142858 -2.35 -1.5357142857142858 -4.714285714285714Zm6.25 -11.607142857142858c-3.346428571428572 0 -6.342857142857143 0.9500000000000001 -8.5 3.107142857142857 -2.157142857142857 2.1535714285714285 -3.107142857142857 5.15 -3.107142857142857 8.5s0.9500000000000001 6.3464285714285715 3.107142857142857 8.5c2.157142857142857 2.157142857142857 5.153571428571429 3.107142857142857 8.5 3.107142857142857 2.342857142857143 0 4.514285714285714 -0.4642857142857143 6.342857142857143 -1.4785714285714286l2.6357142857142857 2.6357142857142857a2.678571428571429 2.678571428571429 0 0 0 3.785714285714286 -3.785714285714286l-2.632142857142857 -2.6392857142857142c1.0142857142857142 -1.8285714285714287 1.4785714285714286 -4.000000000000001 1.4785714285714286 -6.339285714285714 0 -3.35 -0.9500000000000001 -6.3464285714285715 -3.107142857142857 -8.5 -2.1535714285714285 -2.157142857142857 -5.15 -3.107142857142857 -8.5 -3.107142857142857Z" clip-rule="evenodd" stroke-width="1"></path></g></svg>